<svg width="18" height="12" viewBox="0 0 18 12" fill="none" xmlns="http://www.w3.org/2000/svg">
<path id="Vector" d="M8.23359 1.49226C8.54626 1.96126 8.75471 2.53449 8.75471 3.21194C8.75471 3.88938 8.59837 4.4105 8.23359 4.82739C8.02515 5.03583 7.76459 5.24428 7.39981 5.45273C7.97304 5.66117 8.38993 5.97384 8.7026 6.44284C9.01526 6.91184 9.11949 7.43296 9.11949 8.05829C9.11949 8.73574 8.96315 9.30897 8.59837 9.83008C8.38993 10.1949 8.12937 10.4554 7.8167 10.716C7.45192 10.9765 7.03503 11.185 6.56603 11.2892C6.09703 11.3934 5.57591 11.4455 5.00269 11.4455H0V0.293701H5.36747C6.72236 0.293701 7.66037 0.710592 8.23359 1.49226ZM2.24079 2.22182V4.67105H4.95058C5.41958 4.67105 5.83647 4.56683 6.14914 4.4105C6.46181 4.20205 6.61814 3.88938 6.61814 3.42038C6.61814 2.89927 6.4097 2.53449 6.04492 2.37816C5.68014 2.27393 5.26325 2.22182 4.74213 2.22182H2.24079ZM2.24079 6.49495V9.4653H4.95058C5.41958 9.4653 5.78436 9.41319 6.09703 9.25686C6.56603 8.9963 6.82659 8.5273 6.82659 7.84985C6.82659 7.27662 6.61814 6.85973 6.09703 6.65129C5.83647 6.54706 5.47169 6.44284 5.00269 6.44284H2.24079V6.49495ZM15.8419 3.36827C16.4151 3.62883 16.8841 4.04572 17.2489 4.56683C17.6136 5.03583 17.8221 5.60906 17.9263 6.28651C17.9784 6.65129 18.0305 7.22451 17.9784 7.90196H11.9856C12.0377 8.73574 12.2983 9.30897 12.8194 9.62163C13.1321 9.83008 13.549 9.9343 14.018 9.9343C14.487 9.9343 14.9038 9.83008 15.2165 9.56952C15.3728 9.41319 15.5292 9.25686 15.6334 8.9963H17.8221C17.77 9.4653 17.5094 9.98641 17.0404 10.5075C16.3109 11.2892 15.2686 11.7061 13.9658 11.7061C12.8715 11.7061 11.8814 11.3934 11.0476 10.716C10.2138 10.0385 9.79693 8.94419 9.79693 7.43296C9.79693 6.02595 10.1617 4.93161 10.9434 4.14994C11.6729 3.36827 12.6631 3.00349 13.8616 3.00349C14.5912 2.95138 15.2686 3.10771 15.8419 3.36827ZM12.6109 5.19217C12.2983 5.50484 12.1419 5.92173 12.0377 6.44284H15.7376C15.6855 5.86962 15.5292 5.45273 15.1644 5.14006C14.7996 4.82739 14.3827 4.72317 13.9137 4.72317C13.3405 4.72317 12.9236 4.8795 12.6109 5.19217ZM16.2587 0.814815H11.4645V2.22182H16.2066V0.814815H16.2587Z" fill="#F5311B"/>
</svg>
